<svg width="20" height="21" viewBox="0 0 20 21" fill="none" xmlns="http://www.w3.org/2000/svg">
<g clip-path="url(#clip0_1_153)">
<path d="M6.86915 7.05221L1.55249 7.82304L1.45832 7.84221C1.31577 7.88005 1.18582 7.95505 1.08173 8.05954C0.977646 8.16404 0.903158 8.29428 0.865873 8.43698C0.828589 8.57968 0.829844 8.72972 0.869511 8.87177C0.909178 9.01382 0.985835 9.14281 1.09165 9.24554L4.94332 12.9947L4.03499 18.2905L4.02415 18.3822C4.01543 18.5296 4.04604 18.6768 4.11286 18.8085C4.17968 18.9402 4.28031 19.0518 4.40443 19.1318C4.52856 19.2118 4.67173 19.2575 4.81928 19.264C4.96683 19.2705 5.11346 19.2377 5.24415 19.1689L9.99916 16.6689L14.7433 19.1689L14.8267 19.2072C14.9642 19.2614 15.1137 19.278 15.2598 19.2553C15.4059 19.2327 15.5433 19.1716 15.658 19.0783C15.7727 18.985 15.8605 18.8628 15.9124 18.7244C15.9643 18.586 15.9784 18.4362 15.9533 18.2905L15.0442 12.9947L18.8975 9.24471L18.9625 9.17388C19.0553 9.05952 19.1162 8.92259 19.1389 8.77704C19.1616 8.63149 19.1453 8.48252 19.0917 8.34532C19.0381 8.20811 18.9491 8.08757 18.8337 7.99597C18.7184 7.90437 18.5808 7.84499 18.435 7.82388L13.1183 7.05221L10.7417 2.23554C10.6729 2.09599 10.5664 1.97847 10.4343 1.8963C10.3022 1.81412 10.1497 1.77057 9.99416 1.77057C9.83858 1.77057 9.6861 1.81412 9.554 1.8963C9.42189 1.97847 9.31543 2.09599 9.24666 2.23554L6.86915 7.05221Z" fill="#F99253"/>
</g>
<defs>
<clipPath id="clip0_1_153">
<rect width="20" height="20" fill="white" transform="translate(0 0.935547)"/>
</clipPath>
</defs>
</svg>
